<?xml version="1.0" encoding="utf-8"?>
<!-- Generator: Adobe Illustrator 16.0.0, SVG Export Plug-In . SVG Version: 6.00 Build 0)  -->
<!DOCTYPE svg PUBLIC "-//W3C//DTD SVG 1.1//EN" "http://www.w3.org/Graphics/SVG/1.1/DTD/svg11.dtd">
<svg version="1.1" id="圖層_1" xmlns="http://www.w3.org/2000/svg" xmlns:xlink="http://www.w3.org/1999/xlink" x="0px" y="0px"
	 width="293.5px" height="45px" viewBox="0 0 293.5 45" enable-background="new 0 0 293.5 45" xml:space="preserve">
<g>
	<path fill="#EBEBEB" d="M1,22.027c0.016-0.111,0.036-0.222,0.045-0.333c0.064-0.73,0.108-1.463,0.191-2.191
		c0.196-1.729,0.648-3.396,1.271-5.016c0.721-1.875,1.66-3.635,2.884-5.229c0.546-0.709,1.123-1.398,1.726-2.06
		c0.52-0.57,1.075-1.113,1.655-1.622c1.062-0.934,2.222-1.741,3.444-2.456c1.903-1.112,3.932-1.91,6.072-2.416
		C19.05,0.523,19.826,0.4,20.6,0.284c0.477-0.071,0.962-0.097,1.444-0.116c0.687-0.026,1.375-0.048,2.062-0.037
		c0.539,0.009,1.08,0.047,1.616,0.113c0.749,0.091,1.494,0.205,2.236,0.337c1.147,0.205,2.26,0.547,3.349,0.958
		c1.24,0.468,2.424,1.046,3.564,1.722c1.004,0.595,1.961,1.254,2.846,2.007c0.761,0.648,1.489,1.34,2.178,2.063
		c0.768,0.802,1.444,1.684,2.07,2.604c1.323,1.947,2.33,4.042,2.965,6.308c0.242,0.866,0.426,1.751,0.592,2.636
		c0.117,0.625,0.186,1.263,0.227,1.898c0.054,0.822,0.085,1.648,0.076,2.475c-0.007,0.605-0.088,1.213-0.145,1.82
		c-0.096,1.043-0.306,2.068-0.564,3.085c-0.287,1.122-0.675,2.21-1.132,3.276c-0.645,1.506-1.459,2.914-2.429,4.233
		c-0.393,0.534-0.811,1.054-1.247,1.55c-0.456,0.521-0.935,1.021-1.427,1.51c-0.763,0.754-1.599,1.424-2.473,2.047
		c-2.037,1.461-4.261,2.535-6.661,3.246c-0.931,0.274-1.875,0.506-2.84,0.623c-0.708,0.088-1.416,0.183-2.128,0.224
		c-0.787,0.045-1.578,0.063-2.364,0.036c-0.649-0.02-1.299-0.108-1.945-0.182c-1.368-0.156-2.696-0.479-4.002-0.902
		c-1.137-0.364-2.235-0.826-3.294-1.377c-1.167-0.604-2.271-1.312-3.317-2.106c-0.882-0.67-1.712-1.401-2.484-2.192
		c-0.71-0.728-1.369-1.502-1.973-2.322c-0.981-1.334-1.812-2.754-2.48-4.268c-0.582-1.318-1.042-2.677-1.341-4.09
		c-0.142-0.675-0.27-1.355-0.375-2.037c-0.068-0.443-0.085-0.896-0.118-1.348c-0.021-0.294-0.026-0.594-0.044-0.887
		C1.038,23.133,1.014,23.072,1,23.014C1,22.685,1,22.355,1,22.027z M4.155,24.016c0.557,5.324,2.783,9.748,6.866,13.164
		c4.083,3.415,8.831,4.885,14.13,4.438c4.952-0.415,9.165-2.476,12.53-6.121c3.771-4.083,5.464-8.968,5.082-14.514
		c-0.333-4.824-2.263-8.979-5.722-12.347c-4.178-4.068-9.248-5.891-15.057-5.478C16.953,3.517,12.67,5.594,9.25,9.295
		C5.41,13.452,3.787,18.419,4.155,24.016z"/>
	<path fill="#EBEBEB" d="M23.44,8.987c0.056,0.052,0.106,0.099,0.155,0.147c1.397,1.407,2.794,2.816,4.196,4.218
		c0.069,0.068,0.195,0.112,0.296,0.112c2.823,0.006,5.646,0.005,8.469,0.005c0.076,0,0.15,0,0.252,0c0,0.091,0,0.169,0,0.25
		c0,4.896-0.005,9.792,0.007,14.687c0.002,0.679-0.183,1.272-0.591,1.8c-0.456,0.589-1.01,1.051-1.713,1.339
		c-0.898,0.368-1.783,0.778-2.673,1.17c-1.116,0.491-2.234,0.981-3.351,1.476c-1.146,0.506-2.291,1.009-3.435,1.518
		c-0.05,0.023-0.099,0.109-0.102,0.166c-0.012,0.214-0.021,0.432-0.001,0.646c0.028,0.31-0.36,0.696-0.688,0.698
		c-0.55,0.005-1.1,0.015-1.648-0.002c-0.331-0.01-0.711-0.274-0.714-0.823c0-0.134-0.016-0.269,0.004-0.397
		c0.03-0.201-0.065-0.291-0.234-0.365c-1.313-0.567-2.625-1.141-3.934-1.715c-1.106-0.485-2.209-0.979-3.315-1.467
		c-0.781-0.343-1.573-0.671-2.347-1.033c-0.282-0.132-0.531-0.341-0.782-0.53c-0.346-0.259-0.625-0.583-0.846-0.953
		c-0.203-0.334-0.369-0.697-0.376-1.094c-0.017-0.982-0.003-1.967-0.007-2.949c-0.011-4.006-0.023-8.011-0.036-12.015
		c0-0.126,0-0.251,0-0.402c0.081,0,0.154,0,0.228,0c2.83,0,5.66,0,8.489,0.002c0.144,0.001,0.243-0.042,0.344-0.143
		c1.401-1.406,2.806-2.806,4.21-4.207C23.343,9.079,23.389,9.036,23.44,8.987z M30.869,16.49c-0.003,0.07-0.009,0.131-0.009,0.193
		c-0.001,3.386,0,6.772-0.001,10.156c0,0.066-0.009,0.142-0.037,0.199c-0.178,0.382-0.426,0.711-0.828,0.867
		c-0.875,0.337-1.76,0.653-2.641,0.977c-0.799,0.298-1.597,0.593-2.391,0.886c0,0.988,0,1.965,0,2.938
		c0.022,0.004,0.036,0.01,0.045,0.006c0.844-0.355,1.685-0.716,2.529-1.07c1.533-0.646,3.064-1.293,4.604-1.924
		c0.503-0.207,0.937-0.475,1.206-0.968c0.249-0.456,0.451-0.918,0.451-1.456c-0.005-3.52-0.003-7.037-0.003-10.554
		c0-0.081,0-0.161,0-0.249C32.808,16.49,31.845,16.49,30.869,16.49z M13.087,16.49c0,0.09,0,0.17,0,0.25
		c0,3.582,0,7.162,0.003,10.744c0,0.17,0.021,0.351,0.078,0.509c0.249,0.698,0.577,1.325,1.331,1.63
		c1.112,0.45,2.213,0.93,3.32,1.396c1.145,0.48,2.291,0.961,3.437,1.441c0.213,0.09,0.427,0.178,0.643,0.266
		c0.014-0.039,0.021-0.051,0.021-0.063c0.001-0.922,0.006-1.846-0.003-2.768c0-0.061-0.083-0.15-0.149-0.174
		c-1.459-0.543-2.922-1.072-4.381-1.617c-0.296-0.11-0.602-0.229-0.855-0.412c-0.328-0.234-0.559-0.555-0.559-1.004
		c0.006-3.326,0.003-6.655,0.003-9.984c0-0.072,0-0.145,0-0.215C14.999,16.49,14.053,16.49,13.087,16.49z M21.918,12.045
		c-0.065,0.059-0.11,0.097-0.153,0.14c-0.881,0.878-1.759,1.76-2.641,2.637c-0.092,0.091-0.131,0.182-0.13,0.312
		c0.005,1.667,0.003,3.335,0.003,5.001c0,1.876,0,3.752-0.003,5.625c0,0.189,0.078,0.303,0.259,0.35
		c0.472,0.117,0.944,0.238,1.417,0.358c0.412,0.104,0.822,0.204,1.248,0.313C21.918,21.864,21.918,16.969,21.918,12.045z
		 M24.961,12.061c0,4.939,0,9.819,0,14.707c0.112-0.025,0.213-0.048,0.315-0.074c0.766-0.188,1.533-0.377,2.299-0.569
		c0.162-0.041,0.267-0.122,0.267-0.325c-0.005-3.562-0.003-7.124-0.008-10.687c0-0.092-0.052-0.206-0.118-0.272
		c-0.709-0.721-1.426-1.434-2.14-2.148C25.381,12.495,25.19,12.295,24.961,12.061z"/>
</g>
<g>
	<path fill="#EBEBEB" d="M59.053,28.906l0.104,1.97c-1.063-0.332-1.952-0.498-2.671-0.498c-0.956,0.013-1.777,0.21-2.462,0.597
		c-0.686,0.387-1.206,0.906-1.562,1.562c-0.355,0.655-0.533,1.386-0.533,2.19c0,0.705,0.145,1.351,0.435,1.937
		c0.29,0.585,0.746,1.054,1.369,1.405c0.623,0.353,1.402,0.529,2.339,0.529c0.917-0.035,1.889-0.201,2.914-0.498l-0.326,2.004
		c-0.68,0.116-1.233,0.197-1.66,0.241c-0.426,0.046-0.9,0.067-1.421,0.067c-0.978,0-1.857-0.141-2.636-0.42
		c-0.779-0.28-1.437-0.676-1.971-1.184c-0.535-0.51-0.938-1.104-1.207-1.781s-0.403-1.405-0.403-2.18
		c0-1.043,0.173-1.963,0.519-2.759c0.345-0.796,0.826-1.453,1.442-1.973c0.616-0.521,1.331-0.909,2.145-1.167
		c0.814-0.258,1.693-0.387,2.638-0.387C56.836,28.563,57.818,28.678,59.053,28.906z"/>
	<path fill="#EBEBEB" d="M67.307,28.869l0.171,2.007c-0.926-0.31-1.719-0.465-2.379-0.465c-0.646,0-1.123,0.139-1.428,0.416
		c-0.305,0.276-0.458,0.571-0.458,0.885c0,0.373,0.148,0.701,0.445,0.983c0.297,0.283,0.838,0.726,1.623,1.326
		c0.784,0.601,1.373,1.147,1.764,1.644c0.392,0.494,0.587,1.05,0.587,1.666c0,0.555-0.107,1.028-0.322,1.425
		c-0.215,0.396-0.512,0.717-0.891,0.958c-0.379,0.242-0.815,0.419-1.309,0.531c-0.493,0.11-1.034,0.167-1.622,0.167
		c-1.009,0-2.054-0.148-3.136-0.443l-0.171-2.107c1.079,0.449,2.072,0.695,2.981,0.736c0.648-0.017,1.127-0.154,1.437-0.414
		c0.31-0.259,0.465-0.555,0.465-0.887c0-0.376-0.161-0.72-0.483-1.031c-0.322-0.313-0.87-0.776-1.643-1.394
		c-0.773-0.615-1.354-1.181-1.745-1.692c-0.391-0.514-0.586-1.082-0.586-1.705c0-0.646,0.206-1.179,0.617-1.594
		c0.411-0.416,0.96-0.717,1.647-0.902c0.687-0.187,1.44-0.28,2.26-0.28C65.821,28.697,66.546,28.755,67.307,28.869z"/>
	<path fill="#EBEBEB" d="M69.769,28.77h5.979c0.984,0,1.709,0.233,2.176,0.703c0.467,0.471,0.701,1.114,0.701,1.934
		c0,0.683-0.17,1.275-0.512,1.777c-0.341,0.504-0.872,0.857-1.592,1.064v0.033c0.526,0.107,0.955,0.298,1.288,0.566
		c0.333,0.27,0.575,0.59,0.727,0.965c0.151,0.375,0.228,0.777,0.228,1.207c0,0.664-0.161,1.234-0.481,1.713
		c-0.32,0.479-0.802,0.844-1.444,1.096c-0.643,0.253-1.428,0.379-2.356,0.379h-5.188C69.571,37.107,69.729,33.295,69.769,28.77z
		 M71.876,38.53h2.042c1.599,0,2.397-0.601,2.397-1.8c0-0.578-0.189-0.979-0.567-1.205c-0.378-0.228-0.92-0.34-1.625-0.34h-2.109
		L71.876,38.53z M72.064,33.51h2.025c0.711,0,1.24-0.156,1.586-0.469c0.346-0.313,0.519-0.698,0.519-1.158
		c0-0.564-0.164-0.945-0.492-1.144c-0.328-0.196-0.837-0.294-1.529-0.294h-2.005L72.064,33.51z"/>
	<path fill="#EBEBEB" d="M89.753,28.906l0.104,1.97c-1.062-0.332-1.952-0.498-2.671-0.498c-0.956,0.013-1.777,0.21-2.462,0.597
		c-0.686,0.387-1.206,0.906-1.562,1.562c-0.355,0.655-0.533,1.386-0.533,2.19c0,0.705,0.145,1.351,0.435,1.937
		c0.29,0.585,0.746,1.054,1.369,1.405c0.623,0.353,1.402,0.529,2.339,0.529c0.917-0.035,1.889-0.201,2.914-0.498l-0.326,2.004
		c-0.68,0.116-1.233,0.197-1.66,0.241c-0.426,0.046-0.9,0.067-1.421,0.067c-0.978,0-1.857-0.141-2.636-0.42
		c-0.779-0.28-1.437-0.676-1.971-1.184c-0.535-0.51-0.938-1.104-1.207-1.781s-0.403-1.405-0.403-2.18
		c0-1.043,0.173-1.963,0.519-2.759c0.345-0.796,0.826-1.453,1.442-1.973c0.616-0.521,1.331-0.909,2.145-1.167
		s1.693-0.387,2.638-0.387C87.536,28.563,88.518,28.678,89.753,28.906z"/>
	<path fill="#EBEBEB" d="M105.917,28.906l0.104,1.97c-1.062-0.332-1.952-0.498-2.671-0.498c-0.956,0.013-1.777,0.21-2.462,0.597
		c-0.686,0.387-1.206,0.906-1.562,1.562c-0.355,0.655-0.533,1.386-0.533,2.19c0,0.705,0.145,1.351,0.435,1.937
		c0.29,0.585,0.746,1.054,1.369,1.405c0.623,0.353,1.402,0.529,2.339,0.529c0.917-0.035,1.889-0.201,2.914-0.498l-0.326,2.004
		c-0.68,0.116-1.233,0.197-1.66,0.241c-0.426,0.046-0.9,0.067-1.421,0.067c-0.978,0-1.857-0.141-2.636-0.42
		c-0.779-0.28-1.437-0.676-1.971-1.184c-0.535-0.51-0.938-1.104-1.207-1.781s-0.403-1.405-0.403-2.18
		c0-1.043,0.173-1.963,0.519-2.759c0.345-0.796,0.826-1.453,1.442-1.973c0.616-0.521,1.331-0.909,2.145-1.167
		s1.693-0.387,2.638-0.387C103.699,28.563,104.682,28.678,105.917,28.906z"/>
	<path fill="#EBEBEB" d="M113.894,28.563c1.02,0,1.924,0.15,2.713,0.451c0.789,0.303,1.442,0.717,1.96,1.244
		c0.519,0.528,0.905,1.135,1.16,1.821s0.383,1.42,0.383,2.203c0,0.881-0.137,1.692-0.412,2.438
		c-0.275,0.745-0.688,1.395-1.238,1.943c-0.55,0.551-1.247,0.979-2.088,1.286c-0.841,0.307-1.81,0.46-2.905,0.46
		c-1.411,0-2.591-0.258-3.542-0.773c-0.95-0.516-1.65-1.195-2.101-2.037c-0.45-0.845-0.675-1.762-0.675-2.754
		c0-1.32,0.28-2.455,0.84-3.4c0.56-0.946,1.35-1.663,2.369-2.151C111.377,28.809,112.556,28.563,113.894,28.563z M113.793,30.378
		c-0.78,0-1.481,0.181-2.103,0.537c-0.622,0.358-1.106,0.869-1.453,1.532c-0.347,0.664-0.521,1.435-0.521,2.313
		c0,0.735,0.155,1.396,0.464,1.979c0.309,0.582,0.759,1.037,1.348,1.367c0.589,0.328,1.281,0.492,2.076,0.492
		c0.864,0,1.594-0.199,2.188-0.596c0.595-0.396,1.036-0.922,1.321-1.574c0.285-0.652,0.429-1.355,0.429-2.111
		c0-0.627-0.123-1.24-0.368-1.842c-0.245-0.601-0.648-1.101-1.21-1.498C115.403,30.577,114.68,30.378,113.793,30.378z"/>
	<path fill="#EBEBEB" d="M122.029,28.77h5.101c1.276,0,2.221,0.246,2.833,0.741c0.612,0.494,0.917,1.195,0.917,2.101
		c0,0.871-0.257,1.598-0.77,2.182c-0.514,0.584-1.302,0.98-2.365,1.193l2.813,5.222h-2.759c-0.201-0.541-0.408-1.058-0.623-1.547
		c-0.215-0.49-0.437-0.978-0.667-1.461c-0.23-0.483-0.495-1.027-0.796-1.632c-0.301-0.604-0.581-1.162-0.84-1.678
		c0.423,0.039,0.753,0.071,0.99,0.101c0.607-0.011,1.104-0.117,1.491-0.317c0.387-0.201,0.666-0.453,0.837-0.757
		s0.257-0.625,0.257-0.962c0-0.541-0.188-0.928-0.56-1.16c-0.373-0.232-0.935-0.35-1.684-0.35c-0.543,0-1.159,0.035-1.847,0.104
		c-0.101,3.089-0.187,6.308-0.259,9.657h-2.616C121.847,36.536,122.029,32.725,122.029,28.77z"/>
	<path fill="#EBEBEB" d="M132.594,28.77h5.381c0.599,0,1.119,0.131,1.56,0.396c0.441,0.265,0.775,0.626,1.005,1.082
		c0.23,0.457,0.345,0.969,0.345,1.534c0,0.638-0.147,1.238-0.441,1.801s-0.752,1.02-1.375,1.37c-0.623,0.35-1.398,0.532-2.327,0.543
		c-0.287-0.027-0.681-0.063-1.183-0.104l-0.393-1.672c0.207,0.021,0.531,0.053,0.974,0.1c0.853-0.014,1.454-0.207,1.804-0.582
		s0.524-0.838,0.524-1.387c0-0.537-0.144-0.906-0.433-1.104c-0.289-0.199-0.732-0.3-1.332-0.3c-0.625,0-1.24,0.035-1.848,0.104
		c-0.056,1.392-0.101,2.563-0.134,3.519c-0.034,0.955-0.062,2-0.086,3.14c-0.023,1.14-0.036,2.14-0.036,3h-2.483
		c0.064-0.771,0.128-1.677,0.19-2.722s0.113-2.027,0.15-2.947s0.068-1.831,0.09-2.734C132.571,30.9,132.586,29.889,132.594,28.77z"
		/>
	<path fill="#EBEBEB" d="M148.568,28.563c1.021,0,1.926,0.15,2.715,0.451c0.787,0.303,1.441,0.717,1.96,1.244
		c0.519,0.528,0.905,1.135,1.159,1.821c0.256,0.687,0.384,1.42,0.384,2.203c0,0.881-0.138,1.692-0.411,2.438
		c-0.275,0.745-0.688,1.395-1.238,1.943c-0.551,0.551-1.246,0.979-2.088,1.286c-0.842,0.307-1.811,0.46-2.906,0.46
		c-1.411,0-2.591-0.258-3.542-0.773c-0.95-0.516-1.65-1.195-2.101-2.037c-0.45-0.845-0.675-1.762-0.675-2.754
		c0-1.32,0.28-2.455,0.84-3.4c0.56-0.946,1.35-1.663,2.369-2.151C146.053,28.809,147.231,28.563,148.568,28.563z M148.469,30.378
		c-0.779,0-1.481,0.181-2.103,0.537c-0.622,0.358-1.106,0.869-1.453,1.532c-0.347,0.664-0.521,1.435-0.521,2.313
		c0,0.735,0.155,1.396,0.464,1.979c0.309,0.582,0.759,1.037,1.348,1.367c0.589,0.328,1.28,0.492,2.076,0.492
		c0.864,0,1.594-0.199,2.188-0.596c0.597-0.396,1.036-0.922,1.322-1.574c0.285-0.652,0.428-1.355,0.428-2.111
		c0-0.627-0.122-1.24-0.366-1.842c-0.246-0.601-0.648-1.101-1.211-1.498C150.079,30.577,149.355,30.378,148.469,30.378z"/>
	<path fill="#EBEBEB" d="M156.705,28.77h5.102c1.275,0,2.221,0.246,2.832,0.741c0.611,0.494,0.918,1.195,0.918,2.101
		c0,0.871-0.258,1.598-0.771,2.182s-1.303,0.98-2.365,1.193l2.813,5.222h-2.758c-0.201-0.541-0.408-1.058-0.623-1.547
		c-0.216-0.49-0.438-0.978-0.668-1.461c-0.229-0.483-0.494-1.027-0.795-1.632c-0.302-0.604-0.582-1.162-0.842-1.678
		c0.423,0.039,0.753,0.071,0.989,0.101c0.606-0.011,1.104-0.117,1.491-0.317c0.388-0.201,0.666-0.453,0.837-0.757
		c0.172-0.304,0.258-0.625,0.258-0.962c0-0.541-0.188-0.928-0.562-1.16s-0.935-0.35-1.684-0.35c-0.543,0-1.158,0.035-1.848,0.104
		c-0.101,3.089-0.187,6.308-0.258,9.657h-2.617C156.521,36.536,156.705,32.725,156.705,28.77z"/>
	<path fill="#EBEBEB" d="M170.85,28.77h3.103c0.61,1.819,1.2,3.5,1.771,5.041c0.571,1.541,1.372,3.674,2.406,6.396h-2.738
		c-0.332-1.127-0.789-2.452-1.371-3.977h-4.42c-0.17,0.33-0.373,0.742-0.611,1.24s-0.442,0.932-0.612,1.299
		c-0.17,0.366-0.396,0.846-0.673,1.438h-2.811c0.623-1.137,1.185-2.176,1.688-3.117c0.504-0.939,0.963-1.808,1.378-2.604
		c0.415-0.793,0.897-1.732,1.446-2.816S170.434,29.618,170.85,28.77z M173.559,34.383l-1.305-3.816l-1.882,3.816H173.559z"/>
	<path fill="#EBEBEB" d="M177.718,28.77h9.712l-0.07,1.901c-0.797-0.048-1.989-0.071-3.578-0.071
		c-0.164,2.211-0.29,5.414-0.376,9.607h-2.64c0.096-1.266,0.174-2.405,0.232-3.42c0.059-1.016,0.111-2.033,0.154-3.057
		c0.043-1.022,0.074-2.066,0.095-3.131h-0.976c-0.656,0-1.524,0.022-2.604,0.07L177.718,28.77z"/>
	<path fill="#EBEBEB" d="M188.334,28.77h2.709c-0.257,3.572-0.411,7.386-0.464,11.438h-2.722c0.086-1.182,0.168-2.46,0.244-3.836
		c0.076-1.375,0.135-2.669,0.174-3.882C188.314,31.277,188.334,30.037,188.334,28.77z"/>
	<path fill="#EBEBEB" d="M199.328,28.563c1.021,0,1.925,0.15,2.714,0.451c0.789,0.303,1.442,0.717,1.961,1.244
		c0.519,0.528,0.905,1.135,1.16,1.821s0.382,1.42,0.382,2.203c0,0.881-0.137,1.692-0.411,2.438
		c-0.274,0.745-0.688,1.395-1.237,1.943c-0.551,0.551-1.246,0.979-2.088,1.286c-0.843,0.307-1.812,0.46-2.906,0.46
		c-1.409,0-2.59-0.258-3.541-0.773c-0.95-0.516-1.65-1.195-2.102-2.037c-0.449-0.845-0.675-1.762-0.675-2.754
		c0-1.32,0.28-2.455,0.841-3.4c0.561-0.946,1.35-1.663,2.368-2.151C196.813,28.809,197.99,28.563,199.328,28.563z M199.229,30.378
		c-0.779,0-1.48,0.181-2.104,0.537c-0.621,0.358-1.105,0.869-1.452,1.532c-0.348,0.664-0.521,1.435-0.521,2.313
		c0,0.735,0.154,1.396,0.464,1.979c0.31,0.582,0.759,1.037,1.348,1.367c0.591,0.328,1.282,0.492,2.076,0.492
		c0.864,0,1.594-0.199,2.188-0.596c0.596-0.396,1.035-0.922,1.32-1.574c0.286-0.652,0.43-1.355,0.43-2.111
		c0-0.627-0.123-1.24-0.369-1.842c-0.244-0.601-0.647-1.101-1.209-1.498C200.838,30.578,200.114,30.378,199.229,30.378z"/>
	<path fill="#EBEBEB" d="M207.498,28.77h3.136c0.394,0.688,0.775,1.342,1.149,1.963c0.373,0.619,0.818,1.35,1.338,2.188
		s1.013,1.643,1.484,2.41c0.471,0.768,0.888,1.468,1.25,2.102h0.033c0.029-0.607,0.071-1.541,0.125-2.802
		c0.053-1.26,0.096-2.388,0.127-3.385c0.032-0.996,0.058-1.821,0.073-2.478h2.347c-0.091,1.115-0.16,2.086-0.209,2.914
		c-0.052,0.827-0.1,1.717-0.146,2.666c-0.046,0.948-0.087,1.924-0.121,2.928c-0.035,1.004-0.065,1.98-0.09,2.932h-3.015
		l-5.326-8.495h-0.051c-0.021,0.652-0.059,1.591-0.106,2.815c-0.048,1.224-0.086,2.242-0.11,3.05
		c-0.025,0.809-0.045,1.685-0.059,2.63h-2.412c0.086-0.956,0.161-1.895,0.225-2.813c0.063-0.92,0.117-1.856,0.166-2.811
		s0.088-1.883,0.117-2.789C207.454,30.891,207.479,29.881,207.498,28.77z"/>
	<path fill="#EBEBEB" d="M223.406,38.53l-2.278,3.717h-1.644l1.316-3.717H223.406z"/>
	<path fill="#EBEBEB" d="M224.756,28.77h9.712l-0.069,1.901c-0.799-0.048-1.99-0.071-3.58-0.071
		c-0.163,2.211-0.289,5.414-0.375,9.607h-2.64c0.095-1.266,0.173-2.405,0.232-3.42c0.059-1.016,0.11-2.033,0.153-3.057
		c0.045-1.022,0.076-2.066,0.096-3.131h-0.975c-0.658,0-1.525,0.022-2.604,0.07L224.756,28.77z"/>
	<path fill="#EBEBEB" d="M238.95,28.77h3.103c0.61,1.819,1.2,3.5,1.771,5.041c0.57,1.541,1.371,3.674,2.406,6.396h-2.738
		c-0.332-1.127-0.789-2.452-1.372-3.977h-4.42c-0.17,0.33-0.374,0.742-0.612,1.24s-0.441,0.932-0.611,1.299
		c-0.17,0.366-0.396,0.846-0.674,1.438h-2.81c0.621-1.137,1.184-2.176,1.687-3.117c0.504-0.939,0.963-1.808,1.379-2.604
		c0.414-0.793,0.896-1.732,1.445-2.816S238.535,29.618,238.95,28.77z M241.66,34.383l-1.305-3.816l-1.883,3.816H241.66z"/>
	<path fill="#EBEBEB" d="M247.104,28.77h2.709c-0.256,3.572-0.41,7.386-0.463,11.438h-2.723c0.086-1.182,0.168-2.46,0.244-3.836
		c0.077-1.375,0.135-2.669,0.174-3.882C247.084,31.277,247.104,30.037,247.104,28.77z"/>
	<path fill="#EBEBEB" d="M250.773,28.77h2.621c0.961,3.025,2.063,6.246,3.307,9.656c0.374-0.732,0.995-2.066,1.863-4.005
		c-0.623-1.884-1.291-3.769-2.002-5.651h2.518l0.84,2.979h0.033l1.267-2.979h2.328l-2.604,5.515
		c0.479,1.413,0.959,2.776,1.438,4.093c0.935-1.968,1.744-3.695,2.433-5.184c0.688-1.485,1.351-2.961,1.985-4.424h2.57
		l-5.584,11.438h-3.08c-0.397-1.341-0.753-2.443-1.063-3.307c-0.67,1.394-1.173,2.494-1.504,3.307h-3.117
		c-0.418-1.109-0.891-2.376-1.414-3.801c-0.523-1.424-1.012-2.752-1.467-3.983C251.688,31.189,251.23,29.973,250.773,28.77z"/>
	<path fill="#EBEBEB" d="M273.785,28.77h3.104c0.609,1.819,1.199,3.5,1.771,5.041s1.372,3.674,2.405,6.396h-2.737
		c-0.332-1.127-0.789-2.452-1.372-3.977h-4.419c-0.17,0.33-0.374,0.742-0.612,1.24s-0.441,0.932-0.611,1.299
		c-0.17,0.366-0.396,0.846-0.674,1.438h-2.81c0.621-1.137,1.184-2.176,1.687-3.117c0.504-0.939,0.963-1.808,1.379-2.604
		c0.414-0.793,0.896-1.732,1.445-2.816S273.37,29.618,273.785,28.77z M276.495,34.383l-1.306-3.816l-1.881,3.816H276.495z"/>
	<path fill="#EBEBEB" d="M282.043,28.77h3.136c0.394,0.688,0.775,1.342,1.149,1.963c0.373,0.619,0.818,1.35,1.338,2.188
		s1.013,1.643,1.484,2.41c0.471,0.768,0.888,1.468,1.25,2.102h0.033c0.029-0.607,0.071-1.541,0.125-2.802
		c0.053-1.26,0.096-2.388,0.127-3.385c0.032-0.996,0.058-1.821,0.073-2.478h2.347c-0.09,1.115-0.16,2.086-0.209,2.914
		c-0.052,0.827-0.1,1.717-0.146,2.666c-0.046,0.948-0.087,1.924-0.121,2.928c-0.035,1.004-0.065,1.98-0.09,2.932h-3.015
		l-5.326-8.495h-0.051c-0.021,0.652-0.059,1.591-0.106,2.815c-0.048,1.224-0.086,2.242-0.11,3.05
		c-0.024,0.809-0.045,1.685-0.059,2.63h-2.412c0.086-0.956,0.161-1.895,0.225-2.813c0.063-0.92,0.117-1.856,0.166-2.811
		s0.088-1.883,0.117-2.789C281.999,30.891,282.023,29.881,282.043,28.77z"/>
</g>
<g>
	<path fill="#EBEBEB" d="M55.306,5.8c0.445,0,0.831,0.149,1.154,0.446c0.311,0.297,0.466,0.662,0.466,1.094
		c0,0.243-0.283,0.52-0.851,0.831c-0.824,0.364-1.917,1.026-3.281,1.985c0,0.054,0.101,0.081,0.304,0.081h7.474
		c0.148,0,0.223-0.027,0.223-0.081l-1.033-1.134c-0.27-0.351-0.405-0.668-0.405-0.952c0-0.432,0.236-0.648,0.709-0.648
		c0.567,0,1.54,0.574,2.917,1.722c1.202,1,1.803,1.776,1.803,2.329c0,0.352-0.115,0.648-0.344,0.892
		c-0.243,0.27-0.479,0.405-0.709,0.405c-0.189,0-0.514-0.054-0.973-0.162c-0.486-0.108-0.999-0.162-1.539-0.162h-6.563
		c-2.768,0-4.463,0.074-5.084,0.223c-0.351,0.068-0.635,0.101-0.851,0.101c-0.243,0-0.479-0.087-0.709-0.263
		c-0.176-0.122-0.263-0.311-0.263-0.567c0-0.256,0.54-0.864,1.62-1.823l4.274-3.605C54.252,6.037,54.806,5.8,55.306,5.8z
		 M55.934,13.173c3.16,0,5.368,0.135,6.624,0.405c0.405,0.067,0.607,0.229,0.607,0.486c-0.176,0.689-0.372,2.06-0.587,4.112
		c-0.027,0.541-0.263,0.81-0.709,0.81c-0.108,0-0.344-0.027-0.709-0.081c-1.067-0.095-2.701-0.142-4.901-0.142
		c-2.093,0-3.714,0.081-4.861,0.243c-0.284,0.094-0.466,0.142-0.547,0.142c-0.459,0-0.729-0.351-0.811-1.053l-0.587-3.707
		c0-0.418,0.236-0.675,0.709-0.77C52.065,13.322,53.989,13.173,55.934,13.173z M53.361,16.819c0.972-0.108,1.938-0.162,2.896-0.162
		c1.04,0,2.072,0.027,3.099,0.081c0.189,0,0.297-0.115,0.324-0.344v-0.729c0-0.108-0.115-0.182-0.344-0.223
		c-0.689-0.108-1.823-0.162-3.403-0.162c-0.918,0-1.762,0.074-2.532,0.223c-0.311,0.054-0.466,0.142-0.466,0.264l0.081,0.79
		C53.017,16.731,53.131,16.819,53.361,16.819z"/>
	<path fill="#EBEBEB" d="M68.411,11.371l2.755,0.425c0.391,0.081,0.587,0.243,0.587,0.486c0,0.324-0.378,0.621-1.134,0.891
		c-1.283,0.473-1.992,0.709-2.127,0.709c-0.176,0-0.405-0.122-0.689-0.365c-0.243-0.216-0.364-0.466-0.364-0.75
		c0-0.297,0.108-0.621,0.324-0.972C67.979,11.512,68.194,11.371,68.411,11.371z M68.998,6.104c0.311,0,0.743,0.243,1.296,0.729
		c0.918,0.756,1.377,1.222,1.377,1.397c0,0.486-0.297,0.729-0.892,0.729c-0.162,0-0.398-0.034-0.709-0.102
		c-0.513-0.108-1.053-0.175-1.62-0.203c-0.567-0.041-0.851-0.405-0.851-1.094c0-0.392,0.142-0.736,0.425-1.033
		C68.35,6.246,68.674,6.104,68.998,6.104z M71.246,14.956c0.432,0,0.648,0.209,0.648,0.628c0,0.23-0.108,1.094-0.324,2.593
		c-0.081,0.541-0.54,0.81-1.377,0.81c-0.364,0-0.682-0.094-0.952-0.283c-0.271-0.243-0.405-0.547-0.405-0.912
		c0-0.148,0.101-0.371,0.304-0.668l1.661-1.904C70.976,15.044,71.125,14.956,71.246,14.956z M73.13,12.282
		c0.108,0,0.162,0.054,0.162,0.162c0,0.229-0.122,0.5-0.364,0.81c-0.284,0.365-0.547,0.547-0.79,0.547
		c-0.257,0-0.385-0.209-0.385-0.628c0-0.351,0.074-0.594,0.223-0.729c0.013,0.054,0.067,0.081,0.162,0.081
		c0.229,0,0.479-0.061,0.75-0.182C72.981,12.302,73.063,12.282,73.13,12.282z M74.832,5.861c0.284,0,0.493,0.074,0.628,0.223
		c0.175,0.189,0.263,0.385,0.263,0.587c0,0.243-0.115,0.506-0.344,0.79l-1.074,1.175c-0.135,0.216-0.202,0.351-0.202,0.405
		c0,0.081,0.033,0.162,0.101,0.243l1.013-1.134c0.189-0.229,0.358-0.344,0.506-0.344c0.365,0,0.547,0.216,0.547,0.648
		c0,0.284-0.095,0.534-0.284,0.75l-0.567,0.668c0.216,0.068,0.486,0.304,0.81,0.709c0.122,0.149,0.229,0.277,0.324,0.385
		c-0.014-0.027-0.021-0.047-0.021-0.061c0-0.148,0.169-0.25,0.507-0.304c0.418-0.081,1.114-0.122,2.086-0.122
		c1.283,0,2.106,0.034,2.471,0.101c0.243,0.054,0.365,0.135,0.365,0.243c0,0.054-0.021,0.122-0.061,0.203
		c-0.148,0.311-0.304,0.824-0.466,1.539c-0.041,0.176-0.135,0.264-0.284,0.264c-0.108,0-0.277-0.013-0.506-0.041
		c-0.283-0.013-0.79-0.021-1.519-0.021c-0.473,0-0.837,0.021-1.094,0.061c-0.311,0.054-0.513,0.081-0.607,0.081
		c-0.216,0-0.345-0.067-0.385-0.203c-0.041-0.5-0.135-0.912-0.284-1.236c0.013,0.027,0.02,0.054,0.02,0.081
		c0,0.311-0.169,0.466-0.506,0.466h-1.701c-0.689,0-1.25,0.048-1.681,0.142c-0.149,0.081-0.257,0.122-0.324,0.122
		c-0.095,0-0.189-0.047-0.284-0.142c-0.095-0.067-0.142-0.155-0.142-0.263c0-0.175,0.155-0.425,0.466-0.75l0.607-0.688
		c-0.392-0.229-0.729-0.398-1.013-0.506c-0.256-0.094-0.385-0.209-0.385-0.344c0-0.148,0.142-0.385,0.425-0.709l1.702-2.269
		C74.318,6.111,74.615,5.861,74.832,5.861z M74.345,12.181c0.162,0,0.317,0.048,0.466,0.142c0.176,0.108,0.264,0.202,0.264,0.283
		c0,0.095-0.054,0.223-0.162,0.385c-0.014,0.027-0.021,0.047-0.021,0.061c0.229-0.013,0.506-0.02,0.831-0.02
		c-0.176-0.216-0.263-0.385-0.263-0.507c0-0.229,0.115-0.344,0.344-0.344c0.081,0,0.189,0.048,0.324,0.142
		c0.203,0.135,0.473,0.256,0.81,0.364c-0.041,0.122-0.088,0.23-0.142,0.324c0.634-0.013,1.364-0.02,2.188-0.02
		c0.999,0,1.884,0.007,2.653,0.02c-0.014-0.054-0.02-0.115-0.02-0.182c0-0.256,0.061-0.439,0.182-0.547h0.162
		c0.189,0,0.418-0.067,0.688-0.203c0.081-0.041,0.148-0.061,0.203-0.061c0.108,0,0.162,0.054,0.162,0.162
		c0,0.203-0.108,0.433-0.324,0.689c-0.054,0.067-0.115,0.122-0.182,0.162c0.378,0.013,0.722,0.027,1.033,0.041
		c-0.013-0.027-0.027-0.054-0.041-0.081c-0.175-0.203-0.263-0.358-0.263-0.466c0-0.094,0.047-0.209,0.142-0.344
		c0.148-0.108,0.297-0.162,0.445-0.162c0.162,0,0.311,0.041,0.446,0.122c0.189,0.122,0.284,0.223,0.284,0.304
		c0,0.094-0.027,0.223-0.081,0.385c-0.054,0.122-0.108,0.223-0.162,0.304c0.122,0.014,0.236,0.027,0.344,0.041
		c0.297,0.014,0.446,0.095,0.446,0.243c0,0.081-0.054,0.169-0.162,0.263c-0.243,0.284-0.493,0.797-0.75,1.54
		c-0.081,0.297-0.257,0.445-0.527,0.445c-1.35-0.162-3.052-0.243-5.104-0.243h-2.37l-0.061,0.506h3.322
		c3.092,0,5.192,0.034,6.299,0.101c0.229,0.014,0.344,0.061,0.344,0.142s-0.041,0.169-0.122,0.264
		c-0.094,0.122-0.202,0.331-0.324,0.628c-0.378,0.756-0.993,1.364-1.843,1.823c-0.864,0.405-2.1,0.608-3.707,0.608
		c-0.688,0-1.148-0.135-1.377-0.405c-0.271-0.311-0.405-0.851-0.405-1.621c0.77,0.108,1.472,0.162,2.106,0.162
		c0.581,0,0.985-0.074,1.215-0.223c0.216-0.108,0.324-0.196,0.324-0.263c0-0.054-0.271-0.081-0.811-0.081
		c-3.551,0-6.063,0.061-7.535,0.182c-0.243,0.027-0.405,0.041-0.486,0.041c-0.283,0-0.425-0.074-0.425-0.223
		c0-0.297,0.196-1.06,0.587-2.289c0.013-0.108,0.142-0.182,0.385-0.223c0.54-0.054,1.897-0.081,4.071-0.081
		c0.783,0,1.917,0.02,3.403,0.061c0.162,0,0.264-0.041,0.304-0.122l0.081-0.263c0-0.027-0.048-0.041-0.142-0.041
		c-0.54-0.027-1.344-0.041-2.41-0.041c-1.836,0-3.16,0.027-3.97,0.081c-0.432,0.054-0.709,0.081-0.831,0.081
		c-0.392,0-0.587-0.189-0.587-0.567c0-0.229,0.142-0.392,0.426-0.486c-0.176-0.216-0.264-0.378-0.264-0.486
		c0-0.094,0.047-0.202,0.142-0.324C74.048,12.242,74.197,12.181,74.345,12.181z M74.649,10.986h0.729
		c-0.149-0.297-0.257-0.527-0.324-0.689l-0.567,0.689H74.649z M77.019,7.178c3.079,0,4.78,0.027,5.104,0.081
		c0.148,0.041,0.223,0.169,0.223,0.385c0,0.162-0.047,0.297-0.142,0.405C82.15,8.117,82.042,8.15,81.88,8.15h-2.188
		c-0.797,0-1.479,0.014-2.046,0.041c-0.392,0.081-0.682,0.122-0.871,0.122c-0.162,0-0.297-0.061-0.405-0.182
		C76.303,8.036,76.27,7.9,76.27,7.725c0-0.148,0.047-0.276,0.142-0.385C76.533,7.232,76.735,7.178,77.019,7.178z M77.667,9.426
		c2.255,0,3.498,0.041,3.727,0.122c0.216,0.067,0.324,0.196,0.324,0.385c0,0.054-0.027,0.142-0.081,0.263
		c-0.054,0.081-0.115,0.122-0.182,0.122c-0.081,0-0.297-0.013-0.648-0.041c-0.418-0.027-1.026-0.041-1.823-0.041
		c-0.405,0-0.777,0.014-1.114,0.041c-0.256,0.027-0.466,0.041-0.628,0.041c-0.135,0-0.25-0.041-0.344-0.122
		c-0.081-0.027-0.122-0.115-0.122-0.263s0.067-0.284,0.203-0.405C77.1,9.46,77.33,9.426,77.667,9.426z M77.91,6.023
		c2.336,0,3.639,0.054,3.909,0.162c0.203,0.095,0.304,0.257,0.304,0.486c0,0.068-0.027,0.155-0.081,0.263
		c-0.081,0.108-0.162,0.162-0.243,0.162c-0.095,0-0.317-0.034-0.668-0.101c-0.432-0.054-1.053-0.081-1.863-0.081
		c-0.419,0-0.804,0.014-1.155,0.041c-0.27,0.027-0.473,0.041-0.607,0.041c-0.176,0-0.318-0.047-0.426-0.142
		C76.985,6.8,76.938,6.692,76.938,6.53c0-0.148,0.074-0.284,0.223-0.405C77.309,6.057,77.559,6.023,77.91,6.023z M77.91,8.393
		c2.08,0,3.228,0.041,3.443,0.122c0.175,0.081,0.264,0.23,0.264,0.446c0,0.067-0.027,0.155-0.081,0.263
		c-0.068,0.081-0.142,0.122-0.223,0.122s-0.277-0.021-0.587-0.061c-0.378-0.054-0.932-0.081-1.661-0.081
		c-0.365,0-0.703,0.007-1.013,0.021c-0.243,0.041-0.425,0.061-0.547,0.061c-0.149,0-0.271-0.047-0.365-0.142
		c-0.081-0.027-0.122-0.115-0.122-0.263c0-0.162,0.067-0.291,0.203-0.385C77.356,8.427,77.586,8.393,77.91,8.393z M78.862,11.796
		h0.972c0.027,0,0.047-0.041,0.061-0.122l0.02-0.203c0-0.067-0.054-0.101-0.162-0.101h-0.891c-0.095,0-0.142,0.034-0.142,0.101
		v0.203C78.734,11.755,78.781,11.796,78.862,11.796z M84.392,5.861c0.256,0,0.445,0.074,0.567,0.223
		c0.162,0.189,0.243,0.385,0.243,0.587c0,0.189-0.095,0.398-0.284,0.628l-0.851,0.932c-0.108,0.162-0.162,0.263-0.162,0.304
		c0,0.095,0.047,0.203,0.142,0.324l0.041,0.021l0.75-0.811c0.189-0.229,0.365-0.344,0.527-0.344c0.365,0,0.547,0.223,0.547,0.668
		c0,0.243-0.102,0.479-0.304,0.709l-1.56,1.722h0.892c-0.095-0.365-0.142-0.587-0.142-0.668c0-0.148,0.102-0.223,0.304-0.223
		c0.189,0,0.452,0.209,0.79,0.628c0.297,0.351,0.446,0.621,0.446,0.81c0,0.338-0.169,0.506-0.506,0.506h-1.702
		c-0.688,0-1.242,0.041-1.661,0.122c-0.162,0.068-0.277,0.101-0.344,0.101c-0.095,0-0.189-0.041-0.284-0.122
		c-0.081-0.067-0.122-0.155-0.122-0.263c0-0.162,0.155-0.405,0.466-0.729l0.77-0.871c-0.337-0.324-0.628-0.554-0.871-0.688
		c-0.189-0.108-0.284-0.236-0.284-0.385c0-0.135,0.115-0.344,0.344-0.627l1.479-1.904C83.946,6.077,84.203,5.861,84.392,5.861z
		 M85.202,12.019c0.094,0,0.209,0.034,0.344,0.102c0.216,0.135,0.506,0.243,0.871,0.324c-0.081,0.283-0.196,0.52-0.344,0.708
		c-0.149,0.122-0.304,0.183-0.466,0.183c-0.122,0-0.243-0.081-0.365-0.243c-0.243-0.311-0.365-0.554-0.365-0.729
		C84.878,12.134,84.986,12.019,85.202,12.019z"/>
	<path fill="#EBEBEB" d="M97.841,6.023c3.97,0,6.745,0.115,8.325,0.344c0.5,0.067,0.75,0.196,0.75,0.385
		c-0.284,1.972-0.581,5.894-0.891,11.768c-0.027,0.418-0.216,0.628-0.567,0.628c-0.135,0-0.452-0.027-0.952-0.081
		c-1.432-0.108-3.619-0.162-6.563-0.162c-2.984,0-5.293,0.067-6.927,0.202c-0.405,0.094-0.675,0.142-0.81,0.142
		c-0.351,0-0.561-0.297-0.628-0.892L88.686,6.996c0-0.311,0.331-0.513,0.992-0.608C92.365,6.145,95.086,6.023,97.841,6.023z
		 M92.17,17.285c1.958-0.094,3.882-0.142,5.772-0.142c1.81,0,3.612,0.02,5.408,0.061c0.189,0,0.297-0.101,0.324-0.304l0.02-0.729
		c-0.392,0.595-0.864,0.892-1.417,0.892c-0.433,0-0.993-0.432-1.681-1.296c-0.784,0.756-1.486,1.134-2.107,1.134
		c-0.486,0-0.729-0.115-0.729-0.344c0-0.108,0.061-0.223,0.182-0.345c-0.108,0.027-0.229,0.048-0.364,0.061
		c-1.513,0.189-2.701,0.372-3.565,0.547c-0.284,0.054-0.52,0.081-0.709,0.081c-0.297,0-0.547-0.135-0.75-0.405
		c-0.203-0.256-0.304-0.533-0.304-0.831c0-0.081,0.276-0.142,0.831-0.182c2.458-0.189,4.017-0.284,4.679-0.284
		c0.351,0,0.54,0.23,0.567,0.689c0.499-0.418,0.965-0.871,1.397-1.357c-0.622-1.121-1.148-2.302-1.58-3.544h-0.162
		c-1.999,0-3.457,0.088-4.375,0.263c-0.392,0.081-0.662,0.122-0.81,0.122c-0.541,0-0.811-0.236-0.811-0.709
		c0-0.418,0.115-0.715,0.345-0.891c0.378-0.256,2.14-0.398,5.287-0.425c-0.135-0.5-0.271-1.013-0.405-1.54
		c-1.729,0.014-3.335,0.088-4.821,0.223c-0.635,0.041-0.952,0.108-0.952,0.203l0.466,8.832
		C91.907,17.211,91.994,17.285,92.17,17.285z M94.904,11.634c1.472,0,2.424,0.041,2.856,0.122c0.27,0.081,0.405,0.196,0.405,0.344
		c0,0.095-0.027,0.203-0.081,0.324c-0.122,0.419-0.25,1.127-0.385,2.127c-0.041,0.27-0.129,0.405-0.264,0.405
		c-0.148,0-0.351-0.02-0.607-0.061c-0.392-0.013-1.033-0.021-1.924-0.021c-0.54,0-0.959,0.027-1.256,0.081
		c-0.338,0.054-0.561,0.081-0.668,0.081c-0.189,0-0.304-0.108-0.344-0.324c-0.054-0.811-0.162-1.472-0.324-1.985
		c-0.095-0.256-0.142-0.438-0.142-0.547c0-0.189,0.175-0.331,0.526-0.425C93.128,11.674,93.864,11.634,94.904,11.634z
		 M94.337,13.579h1.783c0.027,0,0.047-0.067,0.061-0.203l0.021-0.385c0-0.108-0.027-0.162-0.081-0.162h-1.702
		c-0.094,0-0.142,0.054-0.142,0.162v0.385C94.276,13.511,94.297,13.579,94.337,13.579z M99.057,7.806
		c0.148,0.554,0.297,1.074,0.446,1.56c0.58,0,1.121,0.007,1.62,0.021c-0.027-0.203-0.041-0.486-0.041-0.851
		c0-0.189,0.074-0.337,0.223-0.445c0.203-0.135,0.453-0.203,0.75-0.203c0.27,0,0.513,0.101,0.729,0.304
		c0.203,0.149,0.304,0.317,0.304,0.506c0,0.189-0.135,0.446-0.405,0.77c0.014,0,0.034,0,0.061,0
		c0.337,0.027,0.506,0.101,0.506,0.223c0,0.297-0.075,0.615-0.223,0.952c-0.108,0.229-0.297,0.344-0.567,0.344h-2.35
		c0.216,0.486,0.432,0.918,0.648,1.296c0.095,0.148,0.189,0.291,0.284,0.425c0.135-0.284,0.203-0.54,0.203-0.77
		c0-0.108-0.027-0.236-0.081-0.385c0.122-0.054,0.311-0.081,0.567-0.081c0.391,0,0.722,0.068,0.992,0.203
		c0.189,0.122,0.284,0.263,0.284,0.425c0,0.419-0.284,1.02-0.851,1.803c0.459,0.405,0.992,0.79,1.6,1.155l0.304-6.907
		c0-0.094-0.182-0.155-0.547-0.182C102.554,7.874,101.068,7.819,99.057,7.806z"/>
	<path fill="#EBEBEB" d="M110.137,6.104h3.646c1.134,0,1.904,0.067,2.309,0.202c0.256,0.108,0.385,0.257,0.385,0.446
		c0,0.243-0.176,0.506-0.527,0.79c-0.432,0.378-0.763,0.763-0.992,1.154c-0.716,1.081-1.074,1.675-1.074,1.783
		c0.554,0.324,0.965,0.682,1.235,1.073c0.081,0.135,0.155,0.271,0.223,0.405c0.189-0.216,0.425-0.438,0.709-0.668
		c0,0.23,0.168,0.344,0.506,0.344c0.243,0,0.547-0.114,0.911-0.344c-0.364-0.54-0.722-1.013-1.073-1.418
		c-0.189,0.041-0.358,0.061-0.506,0.061c-0.433,0-0.648-0.196-0.648-0.587c0-0.378,0.169-0.803,0.506-1.276
		c0.054,0.108,0.183,0.162,0.385,0.162c0.391,0,0.857-0.175,1.397-0.526c0.675-0.446,1.208-0.884,1.6-1.317
		c0.148-0.189,0.311-0.283,0.486-0.283c0.377,0,0.607,0.148,0.688,0.445c0.27-0.013,0.554-0.02,0.851-0.02
		c0.716,0,1.256,0.027,1.621,0.081c0.162,0.067,0.243,0.169,0.243,0.304c0,0.203-0.075,0.425-0.223,0.668
		c-0.041,0.081-0.081,0.155-0.122,0.223c0.621,0.473,1.208,0.898,1.762,1.276c0.203-0.243,0.466-0.526,0.79-0.851
		c0-0.108-0.142-0.162-0.425-0.162c-0.203,0-0.405,0.021-0.607,0.061c-0.081,0.067-0.149,0.101-0.203,0.101
		c-0.527,0-0.79-0.27-0.79-0.81c0-0.594,0.378-0.891,1.134-0.891c1.647,0,2.741,0.067,3.281,0.202
		c0.243,0.081,0.365,0.257,0.365,0.527c0,0.068-0.108,0.162-0.324,0.284c-0.405,0.297-1,1.067-1.782,2.309
		c-0.014,0.041-0.027,0.081-0.041,0.122c0.729,0.432,1.391,0.77,1.985,1.013c-0.081,0.648-0.331,1.202-0.75,1.661
		c-0.27,0.284-0.615,0.426-1.033,0.426c-0.23,0-0.473-0.155-0.729-0.466c-0.189-0.243-0.385-0.472-0.587-0.688
		c-0.014,0.257-0.088,0.453-0.223,0.587c-0.081,0.122-0.25,0.182-0.506,0.182h-1.985c-0.729,0-1.364,0.014-1.904,0.041
		c-0.351,0.068-0.615,0.102-0.79,0.102c-0.229,0-0.425-0.081-0.587-0.243c-0.041-0.054-0.074-0.128-0.101-0.223
		c-1.324,0.959-2.282,1.438-2.876,1.438c-0.094,0-0.182,0-0.263,0c-0.135,0.459-0.372,0.891-0.709,1.296
		c-0.526,0.554-1.175,0.831-1.944,0.831c-0.271,0-0.513-0.128-0.729-0.385v2.552c0,0.378-0.129,0.689-0.385,0.932
		c-0.175,0.203-0.513,0.304-1.013,0.304c-0.432,0-0.77-0.102-1.013-0.304c-0.243-0.189-0.365-0.499-0.365-0.932V7.907
		c-0.216-0.175-0.324-0.391-0.324-0.648c0-0.311,0.108-0.581,0.324-0.81C109.515,6.219,109.785,6.104,110.137,6.104z M112.102,8.089
		v2.532c0.04-0.108,0.087-0.216,0.142-0.324l1.134-2.066c0-0.108-0.047-0.162-0.142-0.162C113.02,8.069,112.641,8.076,112.102,8.089
		z M112.102,11.148v3.038c0.904-0.243,1.357-0.77,1.357-1.58c0-0.607-0.385-1.046-1.155-1.316
		C112.209,11.236,112.142,11.188,112.102,11.148z M118.806,16.09c0.284,0,0.425,0.156,0.425,0.466c0,0.459-0.311,0.992-0.932,1.6
		c-0.797,0.729-1.519,1.094-2.167,1.094c-0.541,0-0.811-0.385-0.811-1.155c0-0.634,0.142-1.087,0.425-1.357
		c0.027,0.108,0.155,0.162,0.385,0.162c0.607,0,1.289-0.209,2.045-0.628C118.461,16.151,118.67,16.09,118.806,16.09z
		 M122.208,13.335c1.418,0,3.288,0.155,5.611,0.466c-0.041,0.54-0.196,1.026-0.466,1.458c-0.203,0.337-0.425,0.506-0.668,0.506
		c-0.189,0-0.486-0.061-0.891-0.183c-0.864-0.202-1.708-0.337-2.532-0.405l-0.061,3.18c0,0.338-0.128,0.628-0.385,0.871
		c-0.176,0.175-0.506,0.264-0.993,0.264c-0.445,0-0.79-0.088-1.033-0.264c-0.243-0.189-0.365-0.479-0.365-0.871l-0.061-3.18
		c-0.999,0.067-1.951,0.203-2.856,0.405c-0.405,0.122-0.695,0.183-0.871,0.183c-0.189,0-0.378-0.108-0.567-0.324
		c-0.162-0.189-0.243-0.378-0.243-0.567c0-0.54,0.243-0.871,0.729-0.992C117.935,13.518,119.818,13.335,122.208,13.335z
		 M118.542,10.418c0.081-0.067,0.148-0.135,0.203-0.203c0.054-0.04,0.114-0.087,0.182-0.142c-0.297-0.337-0.594-0.641-0.891-0.912
		c-0.122,0.068-0.236,0.129-0.344,0.183c0.351,0.405,0.628,0.743,0.831,1.013C118.536,10.372,118.542,10.392,118.542,10.418z
		 M119.859,9.062c0.284-0.392,0.5-0.75,0.648-1.074c-0.352,0-0.675,0.007-0.972,0.021c-0.135,0.135-0.271,0.263-0.405,0.385
		C119.414,8.623,119.657,8.846,119.859,9.062z M120.042,11.127c2.079,0.014,3.43,0.034,4.051,0.061
		c-0.756-0.811-1.499-1.54-2.228-2.188C121.284,9.798,120.676,10.506,120.042,11.127z M124.498,16.009
		c0.229,0,0.547,0.108,0.952,0.324c0.58,0.405,1.343,0.75,2.289,1.033c-0.149,0.594-0.385,1.073-0.709,1.438
		c-0.256,0.229-0.561,0.344-0.912,0.344c-0.337,0-0.695-0.203-1.073-0.607c-0.702-0.891-1.053-1.58-1.053-2.066
		C123.991,16.165,124.16,16.009,124.498,16.009z"/>
	<path fill="#EBEBEB" d="M131.06,11.208c1.094,0,2.262,0.203,3.504,0.608c0.634,0.148,0.952,0.385,0.952,0.708
		c0,0.311-0.115,0.615-0.344,0.912c-0.351,0.514-0.675,1.175-0.972,1.985l-0.243,0.871c0.608,0.041,1.445,0.102,2.512,0.183
		c2.674,0.175,5.3,0.263,7.879,0.263c1.215,0,2.721-0.142,4.517-0.425c0,1-0.142,1.823-0.425,2.471
		c-0.284,0.472-0.709,0.709-1.276,0.709c-0.635,0-1.654-0.061-3.059-0.183l-8.872-0.851c-0.932-0.135-1.729-0.203-2.39-0.203
		c-0.365,0-0.729,0.169-1.094,0.506c-0.473,0.432-0.817,0.648-1.033,0.648c-0.702,0-1.053-0.352-1.053-1.054
		c0-0.324,0.195-0.661,0.587-1.013c0.405-0.324,0.803-0.574,1.195-0.749l0.891-3.18c-0.783,0.108-1.269,0.162-1.458,0.162
		c-0.216,0-0.459-0.095-0.729-0.284c-0.27-0.203-0.405-0.486-0.405-0.851c0-0.311,0.122-0.567,0.364-0.77
		C130.364,11.364,130.682,11.208,131.06,11.208z M131.303,8.697c0.418,0,1.006,0.209,1.762,0.628
		c1.202,0.622,1.803,1.006,1.803,1.155c0,0.378-0.25,0.567-0.75,0.567c-0.189,0-0.459-0.033-0.81-0.101
		c-0.608-0.081-1.243-0.135-1.904-0.162c-0.662-0.054-0.992-0.418-0.992-1.094c0-0.27,0.087-0.506,0.263-0.709
		C130.891,8.792,131.101,8.697,131.303,8.697z M131.769,6.023c0.405,0,0.965,0.236,1.681,0.708c1.147,0.716,1.722,1.162,1.722,1.337
		c0,0.365-0.236,0.547-0.709,0.547c-0.189,0-0.453-0.041-0.79-0.122c-0.567-0.108-1.175-0.175-1.823-0.202
		c-0.648-0.054-0.972-0.486-0.972-1.296c0-0.256,0.094-0.486,0.283-0.689C131.377,6.118,131.58,6.023,131.769,6.023z M137.299,5.942
		c0.553,0,0.972,0.094,1.256,0.283C138.852,6.388,139,6.563,139,6.752c0,0.068-0.027,0.149-0.081,0.243
		c0,0.122,0.108,0.182,0.324,0.182h1.296V6.833c0-0.324,0.122-0.594,0.365-0.81c0.229-0.203,0.56-0.304,0.992-0.304
		s0.797,0.095,1.094,0.284c0.311,0.203,0.466,0.506,0.466,0.912l-0.02,0.263h2.998c0.54,0,0.811,0.054,0.811,0.162
		c0,0.526-0.068,0.945-0.203,1.256c-0.176,0.297-0.453,0.445-0.831,0.445c-0.284,0-0.709-0.02-1.276-0.061
		c-0.5-0.041-1.02-0.067-1.56-0.081l-0.04,0.608c1.728,0.013,3.207,0.081,4.436,0.202c0.419,0.027,0.628,0.129,0.628,0.304
		c0,0.378-0.108,0.77-0.324,1.175c-0.135,0.297-0.385,0.445-0.749,0.445c-0.392,0-1.081-0.033-2.066-0.101
		c-1-0.041-1.992-0.061-2.978-0.061c-2.417,0-4.159,0.108-5.226,0.324c-0.486,0.095-0.817,0.142-0.993,0.142
		c-0.594,0-0.891-0.296-0.891-0.891c0-0.486,0.142-0.831,0.425-1.033c0.405-0.284,2.053-0.446,4.942-0.486V8.92
		c-0.716,0.027-1.397,0.067-2.046,0.121c-0.581,0.054-0.952,0.081-1.114,0.081c-0.648,0-0.973-0.27-0.973-0.81
		c0-0.094,0.041-0.378,0.122-0.851c0.067-0.229,0.102-0.466,0.102-0.709s-0.075-0.459-0.223-0.648
		C136.583,5.996,136.88,5.942,137.299,5.942z M141.188,11.938c2.431,0,3.997,0.061,4.699,0.183c0.432,0.122,0.648,0.284,0.648,0.486
		c0,0.108-0.034,0.237-0.102,0.385c-0.189,0.554-0.392,1.472-0.607,2.754c-0.054,0.338-0.203,0.506-0.446,0.506
		c-0.203,0-0.534-0.02-0.992-0.061c-0.622-0.013-1.688-0.021-3.201-0.021c-0.851,0-1.512,0.034-1.985,0.102
		c-0.554,0.081-0.918,0.122-1.094,0.122c-0.284,0-0.459-0.128-0.527-0.385c-0.067-1.081-0.229-1.958-0.486-2.633
		c-0.149-0.351-0.223-0.581-0.223-0.689c0-0.256,0.283-0.445,0.851-0.567C138.426,11.999,139.581,11.938,141.188,11.938z
		 M140.195,14.47h3.342c0.054,0,0.088-0.088,0.102-0.263l0.041-0.486c0-0.094-0.048-0.142-0.142-0.142h-3.342
		c-0.149,0-0.223,0.047-0.223,0.142v0.486C139.999,14.382,140.074,14.47,140.195,14.47z"/>
	<path fill="#EBEBEB" d="M155.608,5.861c0.595,0,1,0.047,1.216,0.142c0.216,0.081,0.324,0.203,0.324,0.365
		c0,0.284-0.115,0.662-0.345,1.134c0.756,0,1.263,0.007,1.52,0.02c0.297,0.041,0.445,0.162,0.445,0.365
		c0,0.216-0.067,0.506-0.202,0.871c-0.055,0.405-0.095,1.404-0.122,2.998c0.054,0.014,0.102,0.021,0.142,0.021
		c0.176,0.014,0.297,0.054,0.365,0.122c0.054-0.594,0.202-1.094,0.445-1.499c0.121,0.122,0.264,0.182,0.426,0.182
		c0.202,0,0.459-0.284,0.77-0.851c0.324-0.635,0.607-1.512,0.851-2.633c0.216-0.54,0.594-0.81,1.134-0.81
		c0.595,0,0.892,0.405,0.892,1.215c0,0.729-0.176,1.566-0.526,2.512c-0.379,1.134-0.885,2.012-1.52,2.633
		c-0.554,0.514-1.087,0.77-1.6,0.77c-0.527,0-0.824-0.277-0.892-0.831c-0.041,0.189-0.102,0.385-0.183,0.587
		c-0.067,0.149-0.169,0.257-0.304,0.324c-0.014,0.77-0.021,1.634-0.021,2.592v2.269c0,0.216-0.094,0.405-0.283,0.567
		c-0.202,0.148-0.459,0.223-0.77,0.223c-0.392,0-0.635-0.108-0.729-0.324c-0.148-0.324-0.223-0.884-0.223-1.681l0.021-3.626
		c-0.514-0.013-1.026-0.02-1.54-0.02c-0.432,0-0.816,0.007-1.154,0.02c-0.121,1.877-0.364,3.248-0.729,4.112
		c-0.419,0.905-1.014,1.357-1.783,1.357c-0.594,0-0.891-0.371-0.891-1.114c0-0.891,0.02-1.458,0.061-1.702
		c0.067,0.095,0.175,0.142,0.324,0.142c0.283,0,0.533-0.25,0.749-0.75c0.176-0.297,0.297-0.898,0.365-1.803
		c-0.014,0-0.027,0-0.041,0c-0.297,0.081-0.486,0.122-0.567,0.122c-0.594,0-0.891-0.27-0.891-0.81c0-0.473,0.101-0.824,0.304-1.054
		c0.162-0.121,0.594-0.216,1.296-0.283c0.014-0.378,0.021-0.776,0.021-1.195c0-0.675-0.041-1.215-0.121-1.62
		c-0.081-0.297-0.122-0.527-0.122-0.689c0-0.256,0.095-0.473,0.283-0.648c0.135-0.108,0.419-0.162,0.852-0.162
		c0.27,0,0.479,0.027,0.628,0.081h0.445c0.135-0.513,0.202-0.864,0.202-1.053c0-0.108-0.081-0.25-0.243-0.425
		C154.481,5.916,155.055,5.861,155.608,5.861z M153.806,11.654c0.419-0.013,0.857-0.021,1.317-0.021c0.054,0,0.101,0,0.142,0
		c-0.162-0.094-0.365-0.223-0.607-0.385c-0.352-0.175-0.527-0.344-0.527-0.506c0-0.243,0.102-0.493,0.304-0.75
		c0.176-0.203,0.459-0.304,0.852-0.304c0.364,0,0.566,0.088,0.607,0.263c0.067,0.541,0.101,0.959,0.101,1.256
		c0,0.189-0.026,0.331-0.08,0.425c0.188,0,0.371,0.007,0.547,0.021l0.04-2.309c0-0.094-0.135-0.142-0.405-0.142h-2.269v1.377
		C153.826,10.945,153.819,11.303,153.806,11.654z M154.94,13.882c0.256,0,0.486,0.074,0.688,0.223
		c0.243,0.162,0.364,0.304,0.364,0.425c0,0.622-0.128,1.465-0.385,2.532c-0.188,0.432-0.438,0.648-0.749,0.648
		c-0.189,0-0.345-0.142-0.466-0.425c-0.229-1.147-0.345-2.039-0.345-2.674c0-0.122,0.088-0.284,0.264-0.486
		C154.501,13.963,154.711,13.882,154.94,13.882z M163.609,13.254c2.391,0,3.937,0.054,4.639,0.162
		c0.418,0.122,0.628,0.277,0.628,0.466c0,0.176-0.027,0.372-0.081,0.587c-0.202,0.77-0.426,2.066-0.668,3.889
		c-0.068,0.473-0.217,0.709-0.446,0.709c-0.216,0-0.54-0.034-0.972-0.101c-0.608-0.041-1.641-0.061-3.1-0.061
		c-0.878,0-1.553,0.04-2.025,0.121c-0.567,0.081-0.938,0.122-1.114,0.122c-0.27,0-0.432-0.175-0.485-0.526
		c-0.068-1.485-0.217-2.687-0.446-3.605c-0.148-0.473-0.223-0.79-0.223-0.952c0-0.297,0.283-0.506,0.851-0.628
		C160.841,13.315,161.989,13.254,163.609,13.254z M162.576,17.063h3.079c0.054,0,0.095-0.223,0.122-0.668l0.04-1.195
		c0-0.108-0.081-0.162-0.243-0.162h-2.937c-0.149,0-0.224,0.054-0.224,0.162v1.195C162.428,16.839,162.481,17.063,162.576,17.063z
		 M165.736,6.287c0.811,0,1.216,0.236,1.216,0.709v1.539c0,0.514,0.073,0.878,0.223,1.094c0.418,0.486,1.208,0.804,2.369,0.952
		c-0.094,0.905-0.297,1.614-0.607,2.127c-0.297,0.418-0.614,0.628-0.952,0.628c-0.688,0-1.438-0.439-2.248-1.317
		c-0.77-0.796-1.154-1.958-1.154-3.484V7.563c0-0.445,0.088-0.77,0.263-0.972C165.048,6.388,165.345,6.287,165.736,6.287z"/>
	<path fill="#EBEBEB" d="M174.487,6.185c0.297,0,0.533,0.034,0.709,0.102h1.722c1.418,0,2.315,0.014,2.694,0.041
		c0.243,0.054,0.364,0.223,0.364,0.506c0,0.229-0.061,0.52-0.183,0.871c-0.04,0.392-0.074,1.296-0.101,2.714
		c0.094-0.324,0.243-0.628,0.445-0.911c0.027,0.175,0.142,0.263,0.345,0.263c0.851,0,1.275-0.682,1.275-2.046
		c0-0.081-0.007-0.337-0.02-0.77c-0.041-0.162-0.062-0.277-0.062-0.344c0-0.284,0.196-0.426,0.588-0.426h2.451
		c1.242,0,2.241,0.061,2.997,0.183c0.365,0.041,0.547,0.142,0.547,0.304c0,0.135-0.027,0.291-0.081,0.466
		c-0.108,0.419-0.162,0.912-0.162,1.479c0,0.932,0.324,1.398,0.973,1.398c0.459,0,0.911-0.027,1.357-0.081
		c-0.041,0.783-0.162,1.418-0.365,1.904c-0.202,0.352-0.533,0.527-0.992,0.527c-0.202,0-0.392-0.014-0.567-0.041
		c-0.014,0.027-0.027,0.054-0.04,0.081c-0.243,0.392-0.514,0.864-0.811,1.417c-0.311,0.581-0.628,1.101-0.952,1.56
		c1.513,0.526,2.869,0.918,4.071,1.175c-0.095,0.797-0.392,1.465-0.891,2.005c-0.365,0.338-0.797,0.506-1.297,0.506
		c-0.364,0-0.763-0.142-1.195-0.425c-0.783-0.526-1.56-1.026-2.329-1.499c-0.162,0.135-0.324,0.263-0.486,0.385
		c-1.161,0.77-2.228,1.154-3.2,1.154c-0.878,0-1.316-0.297-1.316-0.891c0-0.702,0.351-1.323,1.054-1.863
		c0.094,0.216,0.364,0.324,0.81,0.324c0.405,0,0.797-0.074,1.175-0.223c-0.621-0.337-1.235-0.648-1.843-0.932
		c-0.459-0.203-0.688-0.412-0.688-0.628c0-0.702,0.297-1.053,0.891-1.053c0.229,0,0.588,0.122,1.074,0.364
		c0.796,0.338,1.56,0.642,2.288,0.912c0.567-0.715,0.851-1.195,0.851-1.438c0-0.122-0.188-0.182-0.566-0.182
		c-1.432,0-2.296,0.034-2.593,0.101c-0.243,0.054-0.412,0.081-0.507,0.081c-0.594,0-0.891-0.297-0.891-0.891
		c0-0.081,0.006-0.148,0.02-0.203c-0.107,0.014-0.216,0.02-0.323,0.02c-0.555,0-0.905-0.162-1.054-0.486c0,0.959,0,2.073,0,3.342
		l0.162,2.917c0,0.284-0.129,0.534-0.385,0.75c-0.284,0.189-0.621,0.283-1.013,0.283c-0.473,0-0.777-0.142-0.912-0.425
		c-0.188-0.432-0.283-1.181-0.283-2.248v-1.296c-0.297-0.041-0.595-0.061-0.892-0.061c-0.378,0-0.716,0.014-1.013,0.041
		c-0.176,1-0.425,1.79-0.749,2.37c-0.607,0.986-1.458,1.479-2.553,1.479c-0.594,0-0.891-0.405-0.891-1.215
		c0-0.932,0.054-1.526,0.162-1.782c0.04,0.108,0.121,0.162,0.243,0.162c0.418,0,0.782-0.277,1.094-0.831
		c0.473-0.662,0.709-2.525,0.709-5.59c0-0.675-0.048-1.215-0.143-1.621c-0.08-0.297-0.121-0.533-0.121-0.709
		c0-0.337,0.121-0.607,0.364-0.81C173.616,6.273,173.961,6.185,174.487,6.185z M175.561,13.274c0.243-0.013,0.507-0.02,0.79-0.02
		c0.311,0,0.614,0.02,0.912,0.061l0.02-1.56c-0.311-0.027-0.621-0.041-0.932-0.041c-0.256,0-0.485,0.007-0.688,0.021
		C175.635,12.289,175.602,12.802,175.561,13.274z M175.683,10.115c0.216-0.013,0.438-0.02,0.668-0.02
		c0.311,0,0.628,0.013,0.952,0.041V8.697c0-0.162-0.155-0.243-0.466-0.243h-1.154v1.337
		C175.683,9.899,175.683,10.007,175.683,10.115z M182.671,11.229c0.135-0.014,0.27-0.021,0.405-0.021
		c1.431,0,2.572,0.014,3.423,0.041c-0.298-0.567-0.446-1.472-0.446-2.714c0-0.094-0.182-0.142-0.547-0.142h-1.62
		c-0.162,0-0.25,0.074-0.263,0.223C183.528,9.696,183.211,10.567,182.671,11.229z"/>
	<path fill="#EBEBEB" d="M198.044,6.023c0.54,0,0.811,0.27,0.811,0.81c0,0.257-0.283,0.709-0.851,1.357
		c-0.271,0.297-0.567,0.581-0.892,0.851c0.027,1.27,0.041,3.188,0.041,5.753c0,1.755-0.081,2.917-0.243,3.484
		c-0.203,0.702-0.635,1.053-1.297,1.053c-0.566,0-1.107-0.385-1.62-1.155c0.283-0.796,0.426-2.275,0.426-4.436
		c0-1.255-0.008-2.255-0.021-2.998c-0.567,0.203-1.054,0.304-1.459,0.304c-0.742,0-1.113-0.297-1.113-0.891
		c0-0.635,0.27-1.357,0.81-2.167c0.081,0.162,0.297,0.243,0.648,0.243c0.526,0,1.161-0.182,1.904-0.547
		c0.918-0.459,1.641-0.918,2.167-1.377C197.571,6.118,197.801,6.023,198.044,6.023z M205.681,6.185c0.162,0,0.438,0.156,0.83,0.466
		c1.661,1.445,3.167,2.424,4.517,2.937c-0.094,0.567-0.404,1.127-0.932,1.681c-0.445,0.445-0.864,0.668-1.256,0.668
		c-0.107,0-0.236-0.047-0.385-0.142c-0.121,0.324-0.182,0.668-0.182,1.033l-0.102,3.504c-0.041,0.891-0.398,1.627-1.073,2.208
		c-0.581,0.473-1.195,0.709-1.844,0.709c-0.405,0-0.79-0.183-1.154-0.547c-0.392-0.392-0.729-1.074-1.013-2.046
		c0.945-0.108,1.627-0.284,2.046-0.527c0.473-0.243,0.709-0.634,0.709-1.175v-1.964c0-0.148-0.108-0.223-0.324-0.223
		c-0.567,0-1.094,0-1.58,0c-0.176,0.554-0.419,1.101-0.729,1.641c-0.58,1.053-1.337,2.04-2.269,2.958
		c-0.932,0.878-1.701,1.316-2.309,1.316c-0.824,0-1.235-0.351-1.235-1.053c0-0.891,0.297-1.627,0.891-2.208
		c0.162,0.229,0.433,0.344,0.811,0.344c0.418,0,0.877-0.331,1.377-0.993c0.405-0.486,0.756-1.121,1.054-1.904
		c-0.203,0.014-0.385,0.027-0.547,0.041c-0.554,0.108-0.966,0.162-1.235,0.162c-0.189,0-0.393-0.122-0.608-0.365
		c-0.189-0.216-0.283-0.493-0.283-0.831c0-0.554,0.364-0.925,1.094-1.114c0.392-0.068,1.668-0.102,3.828-0.102
		c1.553,0,2.728,0.021,3.524,0.061c-0.311-0.337-0.648-0.736-1.013-1.195c-1.054-1.31-1.58-2.181-1.58-2.613
		C204.708,6.428,205.032,6.185,205.681,6.185z M202.277,6.368c0.486,0,0.729,0.243,0.729,0.729c0,0.284-0.203,0.702-0.607,1.256
		c-0.5,0.688-1.202,1.33-2.106,1.924c-0.676,0.418-1.229,0.628-1.661,0.628c-0.702,0-1.054-0.297-1.054-0.891
		c0-0.635,0.236-1.202,0.709-1.702c0.148,0.054,0.338,0.081,0.567,0.081c0.27,0,0.635-0.122,1.094-0.365
		c0.661-0.364,1.303-0.844,1.924-1.438C202.021,6.442,202.156,6.368,202.277,6.368z"/>
	<path fill="#EBEBEB" d="M223.16,7.421c2.134,0,4.949,0.155,8.446,0.466c-0.054,0.797-0.283,1.506-0.688,2.127
		c-0.297,0.486-0.635,0.729-1.013,0.729c-0.257,0-0.709-0.088-1.356-0.263c-2.013-0.418-3.964-0.628-5.854-0.628
		c-0.635,0-1.249,0.014-1.843,0.041c-0.068,0.095-0.129,0.182-0.183,0.263c-0.108,0.176-0.209,0.344-0.304,0.506h4.841
		c1.256,0,2.249,0.074,2.978,0.223c0.392,0.081,0.588,0.331,0.588,0.75c0,0.135-0.034,0.425-0.102,0.871
		c-0.108,0.716-0.162,1.344-0.162,1.884v3.869c0,0.297-0.148,0.554-0.445,0.77c-0.284,0.203-0.588,0.304-0.912,0.304
		c-0.54,0-0.932-0.108-1.175-0.324c-0.148-0.135-0.223-0.385-0.223-0.75l0.041-0.75c-0.986-0.148-1.938-0.223-2.856-0.223
		c-1.458,0-2.66,0.068-3.605,0.203c-0.081,0.122-0.169,0.236-0.263,0.344c-0.852,1.053-1.857,1.58-3.019,1.58
		c-0.648,0-0.972-0.412-0.972-1.236c0-0.756,0.128-1.397,0.385-1.924c0.04,0.041,0.128,0.061,0.263,0.061
		c0.595,0,1.128-0.162,1.601-0.486c0.418-0.297,0.688-1.101,0.811-2.41c-0.405,0.364-0.824,0.688-1.256,0.972
		c-1.229,0.688-2.296,1.033-3.201,1.033c-0.797,0-1.194-0.398-1.194-1.195c0-0.851,0.371-1.613,1.113-2.289
		c0.108,0.284,0.405,0.426,0.892,0.426c0.567,0,1.249-0.358,2.046-1.074c0.337-0.297,0.682-0.668,1.033-1.114
		c-0.621,0.094-1.229,0.202-1.823,0.324c-0.621,0.162-1.087,0.243-1.397,0.243c-0.257,0-0.521-0.142-0.79-0.425
		c-0.229-0.229-0.345-0.473-0.345-0.729c0-0.756,0.352-1.208,1.054-1.357c1.363-0.351,3.038-0.587,5.023-0.709
		c0.107-0.203,0.216-0.418,0.324-0.648c0.283-0.675,0.628-1.013,1.032-1.013c0.878,0,1.317,0.378,1.317,1.134
		c0,0.135-0.014,0.277-0.041,0.425C222.316,7.421,222.729,7.421,223.16,7.421z M220.082,15.786c0.796-0.081,1.748-0.122,2.855-0.122
		c0.973,0,1.938,0.075,2.896,0.223l0.021-0.831c-0.892-0.122-1.763-0.183-2.613-0.183c-1.188,0-2.181,0.041-2.978,0.122
		C220.21,15.267,220.149,15.53,220.082,15.786z M220.487,13.437c0.756-0.067,1.674-0.101,2.754-0.101
		c0.892,0,1.783,0.061,2.674,0.182v-0.263c0-0.324-0.297-0.486-0.891-0.486h-4.477C220.534,12.984,220.514,13.207,220.487,13.437z"
		/>
	<path fill="#EBEBEB" d="M234.503,6.104h3.687c1.147,0,1.932,0.067,2.35,0.202c0.229,0.095,0.358,0.216,0.385,0.365
		c0.229-0.148,0.527-0.223,0.892-0.223c0.351,0,0.642,0.054,0.871,0.162h3.524c1.877,0,3.146,0.061,3.808,0.182
		c0.419,0.068,0.628,0.223,0.628,0.466c0,0.351-0.054,0.675-0.162,0.972c-0.216,0.581-0.52,1.965-0.911,4.152
		c-0.135,0.797-0.372,1.195-0.709,1.195c-0.135,0-0.479-0.041-1.033-0.122c-0.338-0.027-0.702-0.054-1.094-0.081
		c0.433,0.378,0.892,0.736,1.378,1.073c0.688-0.324,1.175-0.601,1.458-0.83c0.175-0.162,0.264-0.372,0.264-0.628
		c0.594,0.108,1.039,0.277,1.336,0.506s0.446,0.473,0.446,0.729c0,0.257-0.243,0.506-0.729,0.75
		c-0.392,0.176-0.756,0.324-1.094,0.446c0.837,0.418,1.742,0.77,2.714,1.053c-0.135,0.878-0.438,1.58-0.911,2.106
		c-0.324,0.324-0.723,0.486-1.195,0.486c-0.513,0-2.1-1.316-4.76-3.95c-0.716-0.77-1.073-1.31-1.073-1.62c0-0.067,0-0.122,0-0.162
		c-0.5,0-0.966,0.007-1.397,0.02c-0.014,0.918-0.041,1.884-0.081,2.896c0,0.149,0.054,0.223,0.162,0.223
		c0.175,0,0.459-0.074,0.851-0.223c0.985-0.324,1.6-0.486,1.843-0.486c0.271,0,0.405,0.162,0.405,0.486
		c0,0.527-0.574,1.162-1.722,1.904c-1.229,0.729-2.309,1.094-3.241,1.094c-0.702,0-1.053-0.331-1.053-0.993
		c0-0.284,0.047-0.729,0.142-1.337c0.054-0.54,0.088-1.85,0.102-3.929c0-1.836-0.021-3.228-0.061-4.173
		c-0.055-0.54-0.081-0.965-0.081-1.276c-0.419,0.378-0.736,0.763-0.952,1.154c-0.662,1.081-0.993,1.675-0.993,1.783
		c0.554,0.324,0.966,0.682,1.236,1.073c0.311,0.486,0.466,0.966,0.466,1.438c0,0.783-0.264,1.485-0.79,2.106
		c-0.514,0.554-1.142,0.831-1.884,0.831c-0.352,0-0.655-0.196-0.912-0.587l0.021,2.754c0,0.378-0.128,0.689-0.385,0.932
		c-0.176,0.203-0.514,0.304-1.013,0.304c-0.433,0-0.77-0.102-1.013-0.304c-0.229-0.189-0.345-0.499-0.345-0.932l-0.101-10.107
		c-0.027-0.013-0.055-0.041-0.081-0.081c-0.217-0.175-0.324-0.391-0.324-0.648c0-0.311,0.107-0.581,0.324-0.81
		C233.882,6.219,234.152,6.104,234.503,6.104z M236.549,8.089l0.041,5.975c0.877-0.216,1.316-0.702,1.316-1.458
		c0-0.607-0.345-1.046-1.033-1.316c-0.162-0.108-0.243-0.209-0.243-0.304c0-0.189,0.061-0.418,0.183-0.689l0.871-2.066
		c0-0.108-0.055-0.162-0.162-0.162C237.318,8.069,236.995,8.076,236.549,8.089z M243.233,10.682c0,0.297-0.007,0.601-0.021,0.911
		c0.675-0.027,1.182-0.041,1.52-0.041c0.513,0,1.242,0.054,2.188,0.162c0.094,0,0.148-0.054,0.162-0.162l0.101-0.79
		c-0.566-0.068-1.113-0.102-1.641-0.102C244.638,10.662,243.868,10.668,243.233,10.682z M243.254,8.251c0,0.256,0,0.526,0,0.81
		c0.634-0.013,1.397-0.021,2.288-0.021c0.608,0,1.223,0.041,1.844,0.122l0.081-0.709c0-0.081-0.081-0.135-0.243-0.162
		c-0.459-0.041-0.986-0.061-1.58-0.061C244.726,8.231,243.929,8.238,243.254,8.251z"/>
	<path fill="#EBEBEB" d="M261.24,6.104c0.648,0,0.972,0.331,0.972,0.992c0,0.297-0.317,0.824-0.951,1.58
		c-0.824,0.986-1.816,1.83-2.978,2.532c-1.067,0.594-1.938,0.891-2.613,0.891c-0.932,0-1.397-0.351-1.397-1.053
		c0-0.729,0.324-1.566,0.972-2.512c0.122,0.162,0.365,0.243,0.729,0.243c0.594,0,1.297-0.216,2.106-0.648
		c1.026-0.54,1.823-1.101,2.391-1.681C260.714,6.219,260.97,6.104,261.24,6.104z M263.367,10.824c0.392,0,0.735,0.128,1.032,0.385
		c0.271,0.284,0.405,0.608,0.405,0.972c0,0.392-0.223,0.817-0.668,1.276c-0.688,0.581-1.601,1.587-2.734,3.018
		c0,0.122,0.088,0.182,0.263,0.182h4.923c0.175,0,0.263-0.061,0.263-0.182l-0.749-1.296c-0.203-0.418-0.304-0.79-0.304-1.114
		c0-0.378,0.209-0.567,0.628-0.567c0.472,0,1.275,0.695,2.41,2.086c0.999,1.215,1.499,2.167,1.499,2.856
		c0,0.297-0.102,0.561-0.304,0.79c-0.203,0.229-0.398,0.344-0.588,0.344c-0.162,0-0.445-0.061-0.851-0.182
		c-0.419-0.162-0.871-0.243-1.357-0.243h-5.023c-2.025,0-3.268,0.102-3.727,0.304c-0.271,0.081-0.486,0.121-0.648,0.121
		c-0.257,0-0.52-0.094-0.79-0.283c-0.176-0.149-0.263-0.352-0.263-0.608c0-0.364,0.473-1.147,1.418-2.35l3.727-4.598
		C262.455,11.127,262.935,10.824,263.367,10.824z M266.507,6.104c0.216,0,0.573,0.155,1.073,0.466
		c2.079,1.391,3.97,2.343,5.671,2.856c-0.107,0.702-0.479,1.404-1.113,2.106c-0.555,0.554-1.074,0.831-1.56,0.831
		c-0.514,0-1.587-0.857-3.221-2.573c-1.311-1.404-1.965-2.336-1.965-2.795C265.393,6.401,265.764,6.104,266.507,6.104z"/>
	<path fill="#EBEBEB" d="M283.115,9.771c2.147,0,3.963,0.054,5.449,0.162c0.432,0.027,0.647,0.128,0.647,0.304
		c0,0.405-0.107,0.824-0.323,1.256c-0.136,0.297-0.385,0.445-0.75,0.445c-0.405,0-1.134-0.027-2.188-0.081
		c-1.053-0.041-2.113-0.061-3.18-0.061c-2.444,0-4.213,0.108-5.307,0.324c-0.5,0.108-0.824,0.162-0.973,0.162
		c-0.648,0-0.973-0.304-0.973-0.912c0-0.513,0.129-0.891,0.385-1.134C276.418,9.926,278.821,9.771,283.115,9.771z M285.323,6.368
		c3.619,0,5.976,0.047,7.069,0.142c0.675,0.108,1.013,0.271,1.013,0.486c0,0.095-0.041,0.236-0.122,0.425
		c-0.175,0.405-0.263,0.857-0.263,1.357l-0.122,5.732c-0.067,1.445-0.547,2.64-1.438,3.585c-0.77,0.77-1.58,1.155-2.431,1.155
		c-0.419,0-0.817-0.189-1.195-0.567c-0.364-0.351-0.682-0.945-0.952-1.782c-0.014,0.135-0.033,0.27-0.061,0.405
		c-0.054,0.433-0.21,0.648-0.466,0.648c-0.243,0-0.614-0.041-1.114-0.122c-0.702-0.027-1.897-0.041-3.585-0.041
		c-0.973,0-1.715,0.054-2.229,0.162c-0.635,0.095-1.046,0.142-1.235,0.142c-0.297,0-0.473-0.155-0.526-0.466
		c-0.081-1.323-0.243-2.39-0.486-3.2c-0.148-0.432-0.223-0.716-0.223-0.851c0-0.284,0.311-0.493,0.932-0.628
		c0.756-0.122,2.012-0.183,3.768-0.183c2.687,0,4.422,0.054,5.205,0.162c0.486,0.108,0.729,0.271,0.729,0.486
		c0,0.135-0.027,0.297-0.081,0.486c-0.189,0.567-0.378,1.445-0.567,2.633c1.135-0.229,1.972-0.587,2.512-1.074
		c0.595-0.553,0.892-1.417,0.892-2.592V8.697c0-0.162-0.108-0.243-0.324-0.243c-3.916,0-7.049,0.054-9.398,0.162
		c-1.147,0.108-1.985,0.162-2.512,0.162c-0.216,0-0.425-0.122-0.628-0.364c-0.176-0.216-0.263-0.5-0.263-0.851
		c0-0.54,0.601-0.904,1.803-1.094C279.645,6.401,281.745,6.368,285.323,6.368z M280.361,15.847h3.828
		c0.054,0,0.094-0.142,0.121-0.425l0.041-0.729c0-0.108-0.081-0.162-0.243-0.162h-3.667c-0.161,0-0.242,0.054-0.242,0.162
		l0.02,0.729C280.232,15.705,280.28,15.847,280.361,15.847z"/>
</g>
</svg>
